HIERARCHY
ROOT hip
{
	OFFSET 0.000000 0.000000 0.000000 
	CHANNELS 6 Xposition Yposition Zposition Xrotation Zrotation Yrotation
	JOINT abdomen
	{
		OFFSET 0.000000 3.402643 0.000000 
		CHANNELS 3 Xrotation Zrotation Yrotation
		JOINT chest
		{
			OFFSET 0.000000 8.438565 -0.680529 
			CHANNELS 3 Xrotation Zrotation Yrotation
			JOINT neck
			{
				OFFSET 0.000000 10.207942 -0.272212 
				CHANNELS 3 Xrotation Zrotation Yrotation
				JOINT head
				{
					OFFSET 0.000000 3.130431 0.000000 
					CHANNELS 3 Xrotation Zrotation Yrotation
					End Site
					{
						OFFSET 0.000000 3.130435 0.000000 
					}
				}
			}
			JOINT lCollar
			{
				OFFSET 3.470700 6.669187 -0.816635 
				CHANNELS 3 Yrotation Zrotation Xrotation
				JOINT lShldr
				{
					OFFSET 3.198488 0.000000 0.000000 
					CHANNELS 3 Zrotation Yrotation Xrotation
					JOINT lForeArm
					{
						OFFSET 10.139888 0.000000 0.000000 
						CHANNELS 3 Yrotation Zrotation Xrotation
						JOINT lHand
						{
							OFFSET 8.370511 0.000000 0.000000 
							CHANNELS 3 Zrotation Yrotation Xrotation
							End Site
							{
								OFFSET 4.083176 0.000000 0.000000 
							}
						}
					}
				}
			}
			JOINT rCollar
			{
				OFFSET -3.470700 6.669187 -0.816635 
				CHANNELS 3 Yrotation Zrotation Xrotation
				JOINT rShldr
				{
					OFFSET -3.198488 0.000000 0.000000 
					CHANNELS 3 Zrotation Yrotation Xrotation
					JOINT rForeArm
					{
						OFFSET -10.139888 0.000000 0.000000 
						CHANNELS 3 Yrotation Zrotation Xrotation
						JOINT rHand
						{
							OFFSET -8.370511 0.000000 0.000000 
							CHANNELS 3 Zrotation Yrotation Xrotation
							End Site
							{
								OFFSET -4.083176 0.000000 0.000000 
							}
						}
					}
				}
			}
		}
	}
	JOINT lThigh
	{
		OFFSET 5.308129 -1.633274 1.361059 
		CHANNELS 3 Xrotation Zrotation Yrotation
		JOINT lShin
		{
			OFFSET -2.041588 -20.007561 0.000000 
			CHANNELS 3 Xrotation Zrotation Yrotation
			JOINT lFoot
			{
				OFFSET 0.000000 -19.190928 -1.224953 
				CHANNELS 3 Xrotation Yrotation Zrotation
				End Site
				{
					OFFSET 0.000000 -2.449906 4.627600 
				}
			}
		}
	}
	JOINT rThigh
	{
		OFFSET -5.308129 -1.633274 1.361059 
		CHANNELS 3 Xrotation Zrotation Yrotation
		JOINT rShin
		{
			OFFSET 2.041588 -20.007561 0.000000 
			CHANNELS 3 Xrotation Zrotation Yrotation
			JOINT rFoot
			{
				OFFSET 0.000000 -19.190928 -1.224953 
				CHANNELS 3 Xrotation Yrotation Zrotation
				End Site
				{
					OFFSET 0.000000 -2.449906 4.627600 
				}
			}
		}
	}
}
MOTION
Frames: 6
Frame Time: 0.011111
0.597909 52.445171 -3.242307 -0.570136 3.807862 -94.079880 15.801849 -2.516394 -1.845697 -25.645948 2.790286 -0.371157 3.790206 2.277546 -2.031202 -5.999713 -5.413654 -2.789102 -10.187975 -12.782608 -2.553061 -66.483368 -12.018082 -5.083616 -54.193039 8.534008 9.875575 8.524705 12.647240 -64.827522 11.162106 9.669281 -2.390417 63.822735 5.979683 11.330120 51.545483 -8.045254 8.782476 -8.534408 -12.637552 35.736183 -5.083676 7.203060 -14.157233 28.172577 -5.430530 -4.607536 -24.758774 14.395166 3.312045 -6.258402 -4.364658 14.231543 25.906292 5.522490 4.308472 -27.482351 -3.498478 0.299346 
0.602512 52.439857 -3.240537 -0.559153 3.779048 -94.060753 15.890122 -2.513365 -1.820359 -25.733870 2.761146 -0.363707 3.793158 2.351625 -1.967629 -5.923047 -5.408020 -2.649402 -10.187975 -12.782608 -2.553061 -66.421547 -12.036936 -5.069318 -54.099251 8.523007 9.840449 8.524705 12.647240 -64.847061 11.162106 9.669281 -2.390417 63.861286 6.086247 11.214796 51.325668 -8.001536 8.699287 -8.534408 -12.637552 35.833843 -5.064950 7.213575 -14.147510 28.201773 -5.430587 -4.629586 -24.824411 14.326349 3.311827 -6.217604 -4.344491 14.272530 25.906292 5.522491 4.308472 -27.504503 -3.577899 0.267165 
0.593661 52.435257 -3.237351 -0.585875 3.758633 -94.048187 15.949294 -2.549673 -1.834761 -25.812109 2.770389 -0.368145 3.677255 2.464445 -1.940150 -5.639162 -5.568212 -2.599293 -10.187975 -12.782608 -2.553061 -66.425095 -12.017714 -5.020486 -54.035534 8.509840 9.810219 8.524705 12.647240 -64.700569 11.162106 9.669281 -2.390417 63.823883 6.128943 11.187392 51.189987 -7.975533 8.647281 -8.534408 -12.637552 35.824074 -5.058233 7.187243 -14.068789 28.232954 -5.421063 -4.640650 -24.463949 14.642234 3.292631 -6.139631 -4.383600 14.256083 25.846722 5.522209 4.293451 -27.498865 -3.529871 0.277669 
0.585519 52.437737 -3.233456 -0.593265 3.748712 -94.027901 15.890654 -2.536864 -1.776045 -25.733950 2.791037 -0.355949 3.688734 2.423186 -1.903746 -5.581851 -5.589740 -2.533000 -10.187975 -12.782608 -2.553061 -66.513390 -12.013463 -4.929631 -54.099251 8.523007 9.840449 8.524705 12.647240 -64.505264 11.162106 9.669281 -2.390417 63.705502 6.186334 11.324065 51.115734 -7.954215 8.609899 -8.534408 -12.637552 35.960796 -5.094463 7.165017 -14.068701 28.302898 -5.421176 -4.637086 -24.086262 14.893543 3.237026 -6.085995 -4.410968 14.278189 25.765036 5.535949 4.260188 -27.498945 -3.535655 0.296697 
0.586936 52.443752 -3.229562 -0.557180 3.759825 -94.011543 15.850542 -2.461756 -1.720499 -25.665539 2.801854 -0.343526 3.700562 2.342301 -1.860140 -5.544247 -5.582256 -2.457872 -10.187975 -12.782608 -2.553061 -66.553902 -12.109938 -4.994794 -54.119755 8.523354 9.842069 8.524705 12.647240 -64.563858 11.162106 9.669281 -2.390417 63.560741 6.487226 11.385047 50.676537 -7.861397 8.437728 -8.534408 -12.637552 36.009621 -5.165727 7.177573 -14.185286 28.352493 -5.420211 -4.650843 -24.029692 14.896383 3.218073 -6.029679 -4.382581 14.241024 25.672958 5.546632 4.253664 -27.423409 -3.611753 0.281065 
0.586228 52.460747 -3.232041 -0.528149 3.790218 -93.994141 15.830644 -2.430425 -1.689877 -25.694901 2.812077 -0.335869 3.633523 2.309659 -1.832098 -5.397953 -5.514853 -2.426438 -10.187975 -12.782608 -2.553061 -66.541458 -12.177206 -5.077032 -54.004269 8.506093 9.799028 8.524705 12.647240 -64.720108 11.162106 9.669281 -2.390417 63.486744 6.672153 11.336816 50.362415 -7.789017 8.309195 -8.534408 -12.637552 35.970558 -5.237365 7.191135 -14.194571 28.422386 -5.420568 -4.647343 -23.985115 14.894446 3.211135 -5.998577 -4.342740 14.242405 25.593296 5.541862 4.265083 -27.396235 -3.686775 0.242149 
